<svg width="152" height="36" viewBox="0 0 152 36" fill="none" xmlns="http://www.w3.org/2000/svg">
<g id="ae-studio 1" clip-path="url(#clip0_7249_2446)">
<path id="Vector" d="M52.1371 23.8268L57.1446 12.0479H57.2536L62.2617 23.8268H60.1778L56.6472 14.8916L57.9534 14.0058L53.9254 23.8268H52.1371ZM55.2787 19.6311H59.151L59.7731 21.1695H54.7342L55.2787 19.6311ZM64.5049 12.514H72.0167V14.2544H66.3241V17.2691H71.3946V19.0251H66.3241V22.0864H72.2342V23.8268H64.5049V12.514ZM73.9019 22.8789C73.9019 22.6095 74.0002 22.3868 74.197 22.2107C74.3942 22.0242 74.6117 21.931 74.8506 21.931C75.0681 21.931 75.2755 22.0242 75.4727 22.2107C75.6694 22.3868 75.7678 22.6095 75.7678 22.8789C75.7678 23.169 75.6694 23.4021 75.4727 23.5782C75.2755 23.7439 75.0681 23.8268 74.8506 23.8268C74.6117 23.8268 74.3942 23.7439 74.197 23.5782C74.0002 23.4021 73.9019 23.169 73.9019 22.8789ZM83.9479 14.8139C83.5433 14.6067 83.1133 14.4305 82.657 14.2855C82.2006 14.1301 81.7651 14.0524 81.3503 14.0524C80.7906 14.0524 80.3449 14.1768 80.0127 14.4254C79.6913 14.674 79.5305 15.0159 79.5305 15.451C79.5305 15.7618 79.6446 16.0363 79.8728 16.2746C80.101 16.5025 80.3915 16.7045 80.7439 16.8806C81.0963 17.0464 81.4695 17.207 81.8634 17.3624C82.2057 17.4867 82.5429 17.6369 82.8745 17.813C83.2167 17.9788 83.5225 18.186 83.7922 18.4346C84.062 18.6832 84.2744 18.994 84.4301 19.367C84.5959 19.7295 84.6785 20.1802 84.6785 20.7189C84.6785 21.3094 84.5285 21.8533 84.2278 22.3505C83.9271 22.8375 83.4966 23.226 82.9369 23.516C82.3771 23.8061 81.6926 23.9511 80.8838 23.9511C80.4174 23.9511 79.956 23.8994 79.4996 23.7958C79.0539 23.6921 78.6285 23.5523 78.2244 23.3762C77.8198 23.1897 77.4466 22.9825 77.1043 22.7546L77.9131 21.3405C78.162 21.527 78.447 21.6979 78.7685 21.8533C79.0899 22.0087 79.422 22.133 79.7643 22.2263C80.106 22.3091 80.4275 22.3505 80.7282 22.3505C81.0496 22.3505 81.366 22.2988 81.6769 22.1952C81.9983 22.0915 82.263 21.9206 82.4704 21.6824C82.6879 21.4441 82.7969 21.1281 82.7969 20.7344C82.7969 20.4133 82.7036 20.1388 82.517 19.9109C82.3304 19.6829 82.0865 19.4861 81.7859 19.3204C81.4958 19.1442 81.1744 18.9889 80.8215 18.8542C80.4691 18.7195 80.106 18.5693 79.7329 18.4035C79.3698 18.2378 79.0331 18.0358 78.7218 17.7975C78.411 17.5489 78.157 17.2484 77.9597 16.8962C77.763 16.5439 77.6646 16.1089 77.6646 15.5909C77.6646 14.9693 77.8097 14.4305 78.0997 13.9747C78.3902 13.5189 78.7893 13.1563 79.2973 12.887C79.816 12.6176 80.4123 12.4726 81.0862 12.4519C81.8842 12.4519 82.5637 12.5503 83.1234 12.7471C83.6939 12.9336 84.1964 13.1615 84.6319 13.4309L83.9479 14.8139ZM86.5156 12.514H94.0898V14.2544H91.1656V23.8268H89.3616V14.2544H86.5156V12.514ZM98.3357 19.7555C98.3357 20.2009 98.4498 20.6101 98.678 20.9831C98.9163 21.3457 99.2271 21.6409 99.6109 21.8689C99.9948 22.0864 100.425 22.1952 100.902 22.1952C101.4 22.1952 101.845 22.0864 102.239 21.8689C102.633 21.6409 102.944 21.3457 103.172 20.9831C103.401 20.6101 103.515 20.2009 103.515 19.7555V12.514H105.304V19.8021C105.304 20.6205 105.106 21.3457 104.712 21.9776C104.318 22.5992 103.789 23.0861 103.126 23.4384C102.463 23.7802 101.721 23.9511 100.902 23.9511C100.093 23.9511 99.3569 23.7802 98.6932 23.4384C98.03 23.0861 97.5011 22.5992 97.1072 21.9776C96.7233 21.3457 96.5317 20.6205 96.5317 19.8021V12.514H98.3357V19.7555ZM108.541 23.8268V12.514H111.761C112.891 12.514 113.85 12.685 114.638 13.0268C115.427 13.3584 116.064 13.809 116.551 14.3788C117.038 14.9382 117.391 15.565 117.609 16.259C117.837 16.9428 117.951 17.6317 117.951 18.3258C117.951 19.1753 117.801 19.9368 117.5 20.6101C117.199 21.2835 116.79 21.8637 116.271 22.3505C115.753 22.8271 115.152 23.1949 114.467 23.4539C113.793 23.7025 113.073 23.8268 112.305 23.8268H108.541ZM110.361 22.0864H111.979C112.58 22.0864 113.13 22.0035 113.628 21.8378C114.125 21.6616 114.556 21.413 114.919 21.0919C115.292 20.7604 115.577 20.3511 115.774 19.8642C115.981 19.3774 116.085 18.8231 116.085 18.2015C116.085 17.497 115.966 16.8962 115.727 16.3989C115.499 15.8913 115.193 15.4821 114.81 15.1713C114.436 14.8501 114.027 14.617 113.581 14.472C113.135 14.327 112.694 14.2544 112.259 14.2544H110.361V22.0864ZM120.684 12.514H122.504V23.8268H120.684V12.514ZM125.232 18.186C125.232 17.3986 125.382 16.6579 125.683 15.9638C125.983 15.2697 126.398 14.6533 126.927 14.1146C127.456 13.5759 128.067 13.1563 128.762 12.8559C129.467 12.5451 130.219 12.3897 131.017 12.3897C131.805 12.3897 132.546 12.5451 133.242 12.8559C133.946 13.1563 134.563 13.5759 135.092 14.1146C135.631 14.6533 136.051 15.2697 136.352 15.9638C136.663 16.6579 136.818 17.3986 136.818 18.186C136.818 18.9837 136.663 19.7295 136.352 20.4237C136.051 21.1178 135.631 21.7342 135.092 22.2729C134.563 22.8012 133.946 23.2156 133.242 23.516C132.546 23.8061 131.805 23.9511 131.017 23.9511C130.208 23.9511 129.457 23.8061 128.762 23.516C128.067 23.2156 127.456 22.8064 126.927 22.2884C126.398 21.76 125.983 21.1489 125.683 20.4548C125.382 19.7503 125.232 18.994 125.232 18.186ZM127.098 18.186C127.098 18.7454 127.197 19.2685 127.393 19.7555C127.601 20.2424 127.886 20.6723 128.249 21.0453C128.612 21.4079 129.032 21.6927 129.509 21.8999C129.986 22.1071 130.504 22.2107 131.064 22.2107C131.603 22.2107 132.106 22.1071 132.573 21.8999C133.049 21.6927 133.464 21.4079 133.817 21.0453C134.169 20.6723 134.444 20.2424 134.641 19.7555C134.848 19.2685 134.952 18.7454 134.952 18.186C134.952 17.6162 134.848 17.0879 134.641 16.6009C134.434 16.114 134.154 15.6841 133.801 15.3111C133.449 14.9382 133.034 14.6481 132.557 14.4409C132.08 14.2337 131.567 14.1301 131.017 14.1301C130.468 14.1301 129.954 14.2337 129.478 14.4409C129.001 14.6481 128.581 14.9382 128.218 15.3111C127.865 15.6841 127.591 16.1192 127.393 16.6165C127.197 17.1034 127.098 17.6265 127.098 18.186Z" fill="white"/>
<g id="Mask group">
<mask id="mask0_7249_2446" style="mask-type:alpha" maskUnits="userSpaceOnUse" x="0" y="0" width="37" height="36">
<g id="Footer Logo">
<path id="Vector_2" d="M36.9884 0H0.957764V36H36.9884V0Z" fill="#D9D9D9"/>
</g>
</mask>
<g mask="url(#mask0_7249_2446)">
<g id="Footer Logo Mask">
<path id="Vector_3" d="M0.957764 2.07639V35.2235C0.957764 35.6526 1.30593 36.0005 1.7354 36.0005H13.1408C13.5703 36.0005 13.9184 35.6526 13.9184 35.2235V28.405C13.9184 27.6866 14.8106 27.353 15.2827 27.895L22.1103 35.7334C22.2581 35.9031 22.472 36.0005 22.6969 36.0005H30.6146C31.2818 36.0005 31.6393 35.2162 31.2012 34.7132L2.32194 1.56624C1.84984 1.02437 0.957764 1.35797 0.957764 2.07639Z" fill="#F99556"/>
<path id="Vector_4" d="M6.74496 1.28713L35.6242 34.4341C36.0964 34.9762 36.9884 34.6423 36.9884 33.9242V25.6403V18.9065C36.9884 18.4773 36.6403 18.1295 36.2108 18.1295H29.9513C29.7283 18.1295 29.5163 18.034 29.3688 17.8673L27.7635 16.0544C27.3195 15.5529 27.6759 14.7626 28.3459 14.7626H36.2108C36.6403 14.7626 36.9884 14.4148 36.9884 13.9856V9.45324C36.9884 9.02413 36.6403 8.67625 36.2108 8.67625H21.6636C21.4366 8.67625 21.221 8.57713 21.0732 8.40493L19.2957 6.33301C18.8634 5.82901 19.2218 5.05036 19.8862 5.05036H36.2108C36.6403 5.05036 36.9884 4.70251 36.9884 4.27338V0.776976C36.9884 0.347866 36.6403 0 36.2108 0H7.33151C6.66434 0 6.30693 0.784334 6.74496 1.28713Z" fill="#FA6E62"/>
</g>
</g>
</g>
</g>
<defs>
<clipPath id="clip0_7249_2446">
<rect width="150.085" height="36" fill="white" transform="translate(0.957764)"/>
</clipPath>
</defs>
</svg>
